<mxfile host="Electron" agent="Mozilla/5.0 (Windows NT 10.0; Win64; x64) AppleWebKit/537.36 (KHTML, like Gecko) draw.io/26.0.9 Chrome/128.0.6613.186 Electron/32.2.5 Safari/537.36" version="26.0.9">
  <diagram name="Page-1" id="l5tEEu6sFQJAI4-H0Evt">
    <mxGraphModel dx="2156" dy="1963" grid="1" gridSize="10" guides="1" tooltips="1" connect="1" arrows="1" fold="1" page="1" pageScale="1" pageWidth="827" pageHeight="1169" math="0" shadow="0">
      <root>
        <mxCell id="0" />
        <mxCell id="1" parent="0" />
        <mxCell id="mPfmQVjkG2iKkhAeqlhS-1" value="&lt;font style=&quot;font-size: 36px;&quot;&gt;Data Flow Diagram&lt;/font&gt;" style="text;html=1;align=center;verticalAlign=middle;whiteSpace=wrap;rounded=0;" parent="1" vertex="1">
          <mxGeometry x="-40" width="390" height="30" as="geometry" />
        </mxCell>
        <mxCell id="mPfmQVjkG2iKkhAeqlhS-2" value="" style="rounded=0;whiteSpace=wrap;html=1;strokeColor=default;fillColor=none;dashed=1;" parent="1" vertex="1">
          <mxGeometry x="90" y="160" width="190" height="440" as="geometry" />
        </mxCell>
        <mxCell id="mPfmQVjkG2iKkhAeqlhS-3" value="&lt;font style=&quot;font-size: 24px;&quot;&gt;Sources&lt;/font&gt;" style="rounded=0;whiteSpace=wrap;html=1;fillColor=default;strokeColor=none;" parent="1" vertex="1">
          <mxGeometry x="125" y="130" width="120" height="40" as="geometry" />
        </mxCell>
        <mxCell id="7-FruxYWkbmWCOpQDP3w-16" style="edgeStyle=orthogonalEdgeStyle;rounded=0;orthogonalLoop=1;jettySize=auto;html=1;entryX=0;entryY=0.5;entryDx=0;entryDy=0;" parent="1" source="mPfmQVjkG2iKkhAeqlhS-4" target="mPfmQVjkG2iKkhAeqlhS-11" edge="1">
          <mxGeometry relative="1" as="geometry" />
        </mxCell>
        <mxCell id="7-FruxYWkbmWCOpQDP3w-17" style="edgeStyle=orthogonalEdgeStyle;rounded=0;orthogonalLoop=1;jettySize=auto;html=1;entryX=0;entryY=0.5;entryDx=0;entryDy=0;" parent="1" source="mPfmQVjkG2iKkhAeqlhS-4" target="mPfmQVjkG2iKkhAeqlhS-13" edge="1">
          <mxGeometry relative="1" as="geometry" />
        </mxCell>
        <mxCell id="7-FruxYWkbmWCOpQDP3w-18" style="edgeStyle=orthogonalEdgeStyle;rounded=0;orthogonalLoop=1;jettySize=auto;html=1;entryX=0;entryY=0.5;entryDx=0;entryDy=0;" parent="1" source="mPfmQVjkG2iKkhAeqlhS-4" target="mPfmQVjkG2iKkhAeqlhS-12" edge="1">
          <mxGeometry relative="1" as="geometry" />
        </mxCell>
        <mxCell id="mPfmQVjkG2iKkhAeqlhS-4" value="" style="image;aspect=fixed;html=1;points=[];align=center;fontSize=12;image=img/lib/azure2/general/Folder_Blank.svg;" parent="1" vertex="1">
          <mxGeometry x="150.5" y="282" width="69" height="56.00000000000001" as="geometry" />
        </mxCell>
        <mxCell id="7-FruxYWkbmWCOpQDP3w-19" style="edgeStyle=orthogonalEdgeStyle;rounded=0;orthogonalLoop=1;jettySize=auto;html=1;entryX=0;entryY=0.5;entryDx=0;entryDy=0;" parent="1" source="mPfmQVjkG2iKkhAeqlhS-5" target="mPfmQVjkG2iKkhAeqlhS-15" edge="1">
          <mxGeometry relative="1" as="geometry" />
        </mxCell>
        <mxCell id="7-FruxYWkbmWCOpQDP3w-20" style="edgeStyle=orthogonalEdgeStyle;rounded=0;orthogonalLoop=1;jettySize=auto;html=1;entryX=0;entryY=0.5;entryDx=0;entryDy=0;" parent="1" source="mPfmQVjkG2iKkhAeqlhS-5" target="mPfmQVjkG2iKkhAeqlhS-14" edge="1">
          <mxGeometry relative="1" as="geometry" />
        </mxCell>
        <mxCell id="7-FruxYWkbmWCOpQDP3w-21" style="edgeStyle=orthogonalEdgeStyle;rounded=0;orthogonalLoop=1;jettySize=auto;html=1;entryX=0;entryY=0.5;entryDx=0;entryDy=0;" parent="1" source="mPfmQVjkG2iKkhAeqlhS-5" target="mPfmQVjkG2iKkhAeqlhS-16" edge="1">
          <mxGeometry relative="1" as="geometry" />
        </mxCell>
        <mxCell id="mPfmQVjkG2iKkhAeqlhS-5" value="" style="image;aspect=fixed;html=1;points=[];align=center;fontSize=12;image=img/lib/azure2/general/Folder_Blank.svg;" parent="1" vertex="1">
          <mxGeometry x="146" y="443" width="69" height="56.00000000000001" as="geometry" />
        </mxCell>
        <mxCell id="mPfmQVjkG2iKkhAeqlhS-6" value="&lt;font style=&quot;font-size: 18px;&quot;&gt;&lt;b style=&quot;&quot;&gt;CRM&lt;/b&gt;&lt;/font&gt;" style="text;html=1;align=center;verticalAlign=middle;whiteSpace=wrap;rounded=0;" parent="1" vertex="1">
          <mxGeometry x="155" y="338" width="60" height="30" as="geometry" />
        </mxCell>
        <mxCell id="mPfmQVjkG2iKkhAeqlhS-7" value="&lt;font style=&quot;font-size: 18px;&quot;&gt;&lt;b style=&quot;&quot;&gt;ERP&lt;/b&gt;&lt;/font&gt;" style="text;html=1;align=center;verticalAlign=middle;whiteSpace=wrap;rounded=0;" parent="1" vertex="1">
          <mxGeometry x="150.5" y="499" width="60" height="30" as="geometry" />
        </mxCell>
        <mxCell id="mPfmQVjkG2iKkhAeqlhS-8" value="&lt;font style=&quot;font-size: 24px;&quot;&gt;&lt;b&gt;Bronze Layer&lt;/b&gt;&lt;/font&gt;" style="rounded=1;whiteSpace=wrap;html=1;fillColor=#fff2cc;strokeColor=#d6b656;" parent="1" vertex="1">
          <mxGeometry x="359" y="160" width="200" height="40" as="geometry" />
        </mxCell>
        <mxCell id="mPfmQVjkG2iKkhAeqlhS-10" value="" style="rounded=1;whiteSpace=wrap;html=1;fillColor=none;strokeColor=#d6b656;" parent="1" vertex="1">
          <mxGeometry x="359" y="210" width="201" height="380" as="geometry" />
        </mxCell>
        <mxCell id="7-FruxYWkbmWCOpQDP3w-10" style="edgeStyle=orthogonalEdgeStyle;rounded=0;orthogonalLoop=1;jettySize=auto;html=1;entryX=0;entryY=0.5;entryDx=0;entryDy=0;" parent="1" source="mPfmQVjkG2iKkhAeqlhS-11" target="7-FruxYWkbmWCOpQDP3w-4" edge="1">
          <mxGeometry relative="1" as="geometry" />
        </mxCell>
        <mxCell id="mPfmQVjkG2iKkhAeqlhS-11" value="&lt;font style=&quot;font-size: 16px;&quot;&gt;crm_sales_details&lt;/font&gt;" style="rounded=1;whiteSpace=wrap;html=1;fillColor=#fff2cc;strokeColor=#d6b656;" parent="1" vertex="1">
          <mxGeometry x="394" y="240" width="131" height="40" as="geometry" />
        </mxCell>
        <mxCell id="7-FruxYWkbmWCOpQDP3w-11" style="edgeStyle=orthogonalEdgeStyle;rounded=0;orthogonalLoop=1;jettySize=auto;html=1;entryX=0;entryY=0.5;entryDx=0;entryDy=0;" parent="1" source="mPfmQVjkG2iKkhAeqlhS-12" target="7-FruxYWkbmWCOpQDP3w-5" edge="1">
          <mxGeometry relative="1" as="geometry" />
        </mxCell>
        <mxCell id="mPfmQVjkG2iKkhAeqlhS-12" value="&lt;font style=&quot;font-size: 16px;&quot;&gt;crm_cust_info&lt;/font&gt;" style="rounded=1;whiteSpace=wrap;html=1;fillColor=#fff2cc;strokeColor=#d6b656;" parent="1" vertex="1">
          <mxGeometry x="394" y="290" width="131" height="40" as="geometry" />
        </mxCell>
        <mxCell id="7-FruxYWkbmWCOpQDP3w-12" style="edgeStyle=orthogonalEdgeStyle;rounded=0;orthogonalLoop=1;jettySize=auto;html=1;" parent="1" source="mPfmQVjkG2iKkhAeqlhS-13" target="7-FruxYWkbmWCOpQDP3w-6" edge="1">
          <mxGeometry relative="1" as="geometry" />
        </mxCell>
        <mxCell id="mPfmQVjkG2iKkhAeqlhS-13" value="&lt;font style=&quot;font-size: 16px;&quot;&gt;crm_prd_info&lt;/font&gt;" style="rounded=1;whiteSpace=wrap;html=1;fillColor=#fff2cc;strokeColor=#d6b656;" parent="1" vertex="1">
          <mxGeometry x="394" y="340" width="131" height="40" as="geometry" />
        </mxCell>
        <mxCell id="7-FruxYWkbmWCOpQDP3w-13" style="edgeStyle=orthogonalEdgeStyle;rounded=0;orthogonalLoop=1;jettySize=auto;html=1;" parent="1" source="mPfmQVjkG2iKkhAeqlhS-14" target="7-FruxYWkbmWCOpQDP3w-7" edge="1">
          <mxGeometry relative="1" as="geometry" />
        </mxCell>
        <mxCell id="mPfmQVjkG2iKkhAeqlhS-14" value="&lt;font style=&quot;font-size: 16px;&quot;&gt;erp_cust_az12&lt;/font&gt;" style="rounded=1;whiteSpace=wrap;html=1;fillColor=#fff2cc;strokeColor=#d6b656;" parent="1" vertex="1">
          <mxGeometry x="394" y="401" width="131" height="40" as="geometry" />
        </mxCell>
        <mxCell id="7-FruxYWkbmWCOpQDP3w-14" style="edgeStyle=orthogonalEdgeStyle;rounded=0;orthogonalLoop=1;jettySize=auto;html=1;" parent="1" source="mPfmQVjkG2iKkhAeqlhS-15" target="7-FruxYWkbmWCOpQDP3w-8" edge="1">
          <mxGeometry relative="1" as="geometry" />
        </mxCell>
        <mxCell id="mPfmQVjkG2iKkhAeqlhS-15" value="&lt;span style=&quot;font-size: 16px;&quot;&gt;erp_loc_a101&lt;/span&gt;" style="rounded=1;whiteSpace=wrap;html=1;fillColor=#fff2cc;strokeColor=#d6b656;" parent="1" vertex="1">
          <mxGeometry x="394" y="451" width="131" height="40" as="geometry" />
        </mxCell>
        <mxCell id="7-FruxYWkbmWCOpQDP3w-15" style="edgeStyle=orthogonalEdgeStyle;rounded=0;orthogonalLoop=1;jettySize=auto;html=1;" parent="1" source="mPfmQVjkG2iKkhAeqlhS-16" target="7-FruxYWkbmWCOpQDP3w-9" edge="1">
          <mxGeometry relative="1" as="geometry" />
        </mxCell>
        <mxCell id="mPfmQVjkG2iKkhAeqlhS-16" value="&lt;font style=&quot;font-size: 16px;&quot;&gt;erp_px_cat_g1v2&lt;/font&gt;" style="rounded=1;whiteSpace=wrap;html=1;fillColor=#fff2cc;strokeColor=#d6b656;" parent="1" vertex="1">
          <mxGeometry x="394" y="501" width="131" height="40" as="geometry" />
        </mxCell>
        <mxCell id="7-FruxYWkbmWCOpQDP3w-2" value="&lt;font style=&quot;font-size: 24px;&quot;&gt;&lt;b&gt;Bronze Layer&lt;/b&gt;&lt;/font&gt;" style="rounded=1;whiteSpace=wrap;html=1;fillColor=#f5f5f5;strokeColor=#666666;fontColor=#333333;" parent="1" vertex="1">
          <mxGeometry x="620" y="160" width="200" height="40" as="geometry" />
        </mxCell>
        <mxCell id="7-FruxYWkbmWCOpQDP3w-3" value="" style="rounded=1;whiteSpace=wrap;html=1;fillColor=none;strokeColor=#666666;fontColor=#333333;" parent="1" vertex="1">
          <mxGeometry x="620" y="210" width="201" height="380" as="geometry" />
        </mxCell>
        <mxCell id="JvZ5DPrWcQd7lz2G_di1-9" style="edgeStyle=orthogonalEdgeStyle;rounded=0;orthogonalLoop=1;jettySize=auto;html=1;" edge="1" parent="1" source="7-FruxYWkbmWCOpQDP3w-4" target="JvZ5DPrWcQd7lz2G_di1-3">
          <mxGeometry relative="1" as="geometry" />
        </mxCell>
        <mxCell id="7-FruxYWkbmWCOpQDP3w-4" value="&lt;font style=&quot;font-size: 16px;&quot;&gt;crm_sales_details&lt;/font&gt;" style="rounded=1;whiteSpace=wrap;html=1;fillColor=#f5f5f5;strokeColor=#666666;fontColor=#333333;" parent="1" vertex="1">
          <mxGeometry x="655" y="240" width="131" height="40" as="geometry" />
        </mxCell>
        <mxCell id="JvZ5DPrWcQd7lz2G_di1-10" style="rounded=0;orthogonalLoop=1;jettySize=auto;html=1;entryX=0;entryY=0.5;entryDx=0;entryDy=0;jumpStyle=gap;" edge="1" parent="1" source="7-FruxYWkbmWCOpQDP3w-5" target="JvZ5DPrWcQd7lz2G_di1-4">
          <mxGeometry relative="1" as="geometry" />
        </mxCell>
        <mxCell id="7-FruxYWkbmWCOpQDP3w-5" value="&lt;font style=&quot;font-size: 16px;&quot;&gt;crm_cust_info&lt;/font&gt;" style="rounded=1;whiteSpace=wrap;html=1;fillColor=#f5f5f5;strokeColor=#666666;fontColor=#333333;" parent="1" vertex="1">
          <mxGeometry x="655" y="290" width="131" height="40" as="geometry" />
        </mxCell>
        <mxCell id="JvZ5DPrWcQd7lz2G_di1-13" style="rounded=0;orthogonalLoop=1;jettySize=auto;html=1;entryX=0;entryY=0.5;entryDx=0;entryDy=0;jumpStyle=gap;" edge="1" parent="1" source="7-FruxYWkbmWCOpQDP3w-6" target="JvZ5DPrWcQd7lz2G_di1-5">
          <mxGeometry relative="1" as="geometry" />
        </mxCell>
        <mxCell id="7-FruxYWkbmWCOpQDP3w-6" value="&lt;font style=&quot;font-size: 16px;&quot;&gt;crm_prd_info&lt;/font&gt;" style="rounded=1;whiteSpace=wrap;html=1;fillColor=#f5f5f5;strokeColor=#666666;fontColor=#333333;" parent="1" vertex="1">
          <mxGeometry x="655" y="340" width="131" height="40" as="geometry" />
        </mxCell>
        <mxCell id="JvZ5DPrWcQd7lz2G_di1-11" style="rounded=0;orthogonalLoop=1;jettySize=auto;html=1;entryX=0;entryY=0.5;entryDx=0;entryDy=0;jumpStyle=gap;" edge="1" parent="1" source="7-FruxYWkbmWCOpQDP3w-7" target="JvZ5DPrWcQd7lz2G_di1-4">
          <mxGeometry relative="1" as="geometry" />
        </mxCell>
        <mxCell id="7-FruxYWkbmWCOpQDP3w-7" value="&lt;font style=&quot;font-size: 16px;&quot;&gt;erp_cust_az12&lt;/font&gt;" style="rounded=1;whiteSpace=wrap;html=1;fillColor=#f5f5f5;strokeColor=#666666;fontColor=#333333;" parent="1" vertex="1">
          <mxGeometry x="655" y="401" width="131" height="40" as="geometry" />
        </mxCell>
        <mxCell id="JvZ5DPrWcQd7lz2G_di1-12" style="rounded=0;orthogonalLoop=1;jettySize=auto;html=1;entryX=0;entryY=0.5;entryDx=0;entryDy=0;jumpStyle=gap;" edge="1" parent="1" source="7-FruxYWkbmWCOpQDP3w-8" target="JvZ5DPrWcQd7lz2G_di1-4">
          <mxGeometry relative="1" as="geometry" />
        </mxCell>
        <mxCell id="7-FruxYWkbmWCOpQDP3w-8" value="&lt;span style=&quot;font-size: 16px;&quot;&gt;erp_loc_a101&lt;/span&gt;" style="rounded=1;whiteSpace=wrap;html=1;fillColor=#f5f5f5;strokeColor=#666666;fontColor=#333333;" parent="1" vertex="1">
          <mxGeometry x="655" y="451" width="131" height="40" as="geometry" />
        </mxCell>
        <mxCell id="JvZ5DPrWcQd7lz2G_di1-14" style="rounded=0;orthogonalLoop=1;jettySize=auto;html=1;entryX=0;entryY=0.5;entryDx=0;entryDy=0;jumpStyle=gap;" edge="1" parent="1" source="7-FruxYWkbmWCOpQDP3w-9" target="JvZ5DPrWcQd7lz2G_di1-5">
          <mxGeometry relative="1" as="geometry" />
        </mxCell>
        <mxCell id="7-FruxYWkbmWCOpQDP3w-9" value="&lt;font style=&quot;font-size: 16px;&quot;&gt;erp_px_cat_g1v2&lt;/font&gt;" style="rounded=1;whiteSpace=wrap;html=1;fillColor=#f5f5f5;strokeColor=#666666;fontColor=#333333;" parent="1" vertex="1">
          <mxGeometry x="655" y="501" width="131" height="40" as="geometry" />
        </mxCell>
        <mxCell id="JvZ5DPrWcQd7lz2G_di1-1" value="&lt;span style=&quot;font-size: 24px;&quot;&gt;&lt;b&gt;Gold Layer&lt;/b&gt;&lt;/span&gt;" style="rounded=1;whiteSpace=wrap;html=1;fillColor=#e3c800;strokeColor=#B09500;fontColor=#000000;" vertex="1" parent="1">
          <mxGeometry x="900" y="160" width="200" height="40" as="geometry" />
        </mxCell>
        <mxCell id="JvZ5DPrWcQd7lz2G_di1-2" value="" style="rounded=1;whiteSpace=wrap;html=1;fillColor=none;strokeColor=#B09500;fontColor=#000000;" vertex="1" parent="1">
          <mxGeometry x="900" y="210" width="201" height="380" as="geometry" />
        </mxCell>
        <mxCell id="JvZ5DPrWcQd7lz2G_di1-3" value="&lt;span style=&quot;font-size: 16px;&quot;&gt;fact_sales&lt;/span&gt;" style="rounded=1;whiteSpace=wrap;html=1;fillColor=#e3c800;strokeColor=#B09500;fontColor=#000000;" vertex="1" parent="1">
          <mxGeometry x="935" y="240" width="131" height="40" as="geometry" />
        </mxCell>
        <mxCell id="JvZ5DPrWcQd7lz2G_di1-4" value="&lt;span style=&quot;font-size: 16px;&quot;&gt;dim_customers&lt;/span&gt;" style="rounded=1;whiteSpace=wrap;html=1;fillColor=#e3c800;strokeColor=#B09500;fontColor=#000000;" vertex="1" parent="1">
          <mxGeometry x="934.5" y="360" width="131" height="40" as="geometry" />
        </mxCell>
        <mxCell id="JvZ5DPrWcQd7lz2G_di1-5" value="&lt;span style=&quot;font-size: 16px;&quot;&gt;dim_products&lt;/span&gt;" style="rounded=1;whiteSpace=wrap;html=1;fillColor=#e3c800;strokeColor=#B09500;fontColor=#000000;" vertex="1" parent="1">
          <mxGeometry x="935" y="480" width="131" height="40" as="geometry" />
        </mxCell>
      </root>
    </mxGraphModel>
  </diagram>
</mxfile>
